<svg xmlns="http://www.w3.org/2000/svg" width="1em" height="1em" viewBox="0 0 256 256"><path fill="currentColor" d="M196 128a68 68 0 1 1-68-68a68.1 68.1 0 0 1 68 68Zm-68-84a8 8 0 0 0 8-8V16a8 8 0 0 0-16 0v20a8 8 0 0 0 8 8ZM57.3 68.6a8.1 8.1 0 0 0 11.3 0a8 8 0 0 0 0-11.3L54.5 43.1a8.1 8.1 0 1 0-11.4 11.4ZM44 128a8 8 0 0 0-8-8H16a8 8 0 0 0 0 16h20a8 8 0 0 0 8-8Zm13.3 59.4l-14.2 14.1a8.1 8.1 0 0 0 0 11.4a8.5 8.5 0 0 0 5.7 2.3a8.3 8.3 0 0 0 5.7-2.3l14.1-14.2a8 8 0 0 0-11.3-11.3ZM128 212a8 8 0 0 0-8 8v20a8 8 0 0 0 16 0v-20a8 8 0 0 0-8-8Zm70.7-24.6a8 8 0 0 0-11.3 11.3l14.1 14.2a8.3 8.3 0 0 0 5.7 2.3a8.5 8.5 0 0 0 5.7-2.3a8.1 8.1 0 0 0 0-11.4ZM240 120h-20a8 8 0 0 0 0 16h20a8 8 0 0 0 0-16Zm-46.9-49.1a7.8 7.8 0 0 0 5.6-2.3l14.2-14.1a8.1 8.1 0 0 0-11.4-11.4l-14.1 14.2a8 8 0 0 0 0 11.3a7.8 7.8 0 0 0 5.7 2.3Z"/></svg>