<?xml version="1.0" encoding="UTF-8" standalone="no"?>
<!-- Created with Inkscape (http://www.inkscape.org/) -->

<svg
   version="1.1"
   id="svg9"
   width="249"
   height="54"
   viewBox="0 0 249 54"
   xmlns:xlink="http://www.w3.org/1999/xlink"
   xmlns="http://www.w3.org/2000/svg"
   xmlns:svg="http://www.w3.org/2000/svg">
  <defs
     id="defs13">
    <linearGradient
       id="linearGradient1983">
      <stop
         style="stop-color:#22b455;stop-opacity:1;"
         offset="0"
         id="stop1979" />
      <stop
         style="stop-color:#1dd1a1;stop-opacity:1"
         offset="1"
         id="stop1981" />
    </linearGradient>
    <linearGradient
       xlink:href="#linearGradient1983"
       id="linearGradient1985"
       x1="7.7685595"
       y1="9.0633192"
       x2="241.80016"
       y2="41.214268"
       gradientUnits="userSpaceOnUse" />
  </defs>
  <g
     id="layer1">
    <g
       aria-label="ArsenTech"
       id="text7846"
       style="font-size:48px;line-height:1.25">
      <g
         id="g1747"
         style="fill:url(#linearGradient1985);fill-opacity:1">
        <path
           d="m 13.331405,9.2923927 c -1.007812,0 -1.617187,0.6328125 -1.828125,1.9218753 -0.210937,0.773437 -0.5625,1.289062 -1.054687,1.523437 -1.7109378,0.257813 -2.5781253,0.9375 -2.5781253,2.039063 v 26.390625 c 0,1.007812 0.5625,1.59375 1.7109375,1.757812 H 11.22203 c 0.984375,0 1.546875,-0.585937 1.710938,-1.734375 v -9.304687 c 0.04687,-1.148438 0.140625,-1.734375 0.28125,-1.734375 0,-0.960938 0.960937,-1.429688 2.882812,-1.429688 h 7.453125 c 1.148438,0.02344 1.710938,0.117188 1.710938,0.28125 0.960937,0 1.453125,0.960938 1.453125,2.882813 v 9.304687 c 0,1.007813 0.5625,1.59375 1.710937,1.757813 h 1.617188 c 1.007812,0 1.59375,-0.585938 1.757812,-1.734375 V 14.823643 c 0,-1.03125 -0.632812,-1.640625 -1.921875,-1.828125 C 29.104843,12.78458 28.589218,12.433018 28.354843,11.94083 28.120468,10.206455 27.44078,9.3392677 26.339218,9.3392677 Z m -0.375,8.2968753 c 0.04687,-1.148438 0.140625,-1.710938 0.28125,-1.710938 0,-0.960937 0.960938,-1.453125 2.882813,-1.453125 h 7.453125 c 1.148437,0.04687 1.710937,0.140625 1.710937,0.28125 0.960938,0 1.453125,0.960938 1.453125,2.882813 v 2.789062 c -0.04687,1.148438 -0.140625,1.734375 -0.304687,1.734375 0,0.960938 -0.960938,1.429688 -2.859375,1.429688 h -7.453125 c -1.148438,-0.02344 -1.734375,-0.117188 -1.734375,-0.28125 -0.960938,0 -1.429688,-0.960938 -1.429688,-2.882813 z"
           style="font-family:'Digital tech';-inkscape-font-specification:'Digital tech';fill:url(#linearGradient1985);fill-opacity:1.0"
           id="path251" />
        <path
           d="m 35.831405,9.2923927 c -0.984375,0 -1.546875,0.5859375 -1.710937,1.7343753 v 30.140625 c 0,1.007812 0.5625,1.59375 1.710937,1.757812 h 1.640625 c 0.984375,0 1.546875,-0.585937 1.710938,-1.734375 v -9.398437 c 0.04687,-1.148438 0.140625,-1.734375 0.28125,-1.734375 0,-0.960938 0.960937,-1.429688 2.882812,-1.429688 h 7.453125 c 1.148438,0.02344 1.734375,0.117188 1.734375,0.28125 0.960938,0 1.429688,0.960938 1.429688,2.882813 v 9.398437 c 0,1.007813 0.5625,1.59375 1.710937,1.757813 h 1.640625 c 0.984375,0 1.546875,-0.585938 1.710938,-1.734375 v -12.1875 c 0,-0.492188 -0.257813,-1.007813 -0.773438,-1.546875 -1.382812,-0.398438 -2.085937,-0.84375 -2.085937,-1.335938 v -0.09375 c 0,-0.28125 0.117187,-0.515625 0.375,-0.679687 1.664062,-0.445313 2.484375,-1.171875 2.484375,-2.203125 v -8.34375 c 0,-1.03125 -0.632813,-1.640625 -1.921875,-1.828125 C 55.331405,12.78458 54.81578,12.433018 54.581405,11.94083 54.34703,10.206455 53.667343,9.3392677 52.56578,9.3392677 Z m 3.351563,8.2968753 c 0.04687,-1.148438 0.140625,-1.710938 0.28125,-1.710938 0,-0.960937 0.960937,-1.453125 2.882812,-1.453125 h 7.453125 c 1.148438,0.04687 1.734375,0.140625 1.734375,0.28125 0.960938,0 1.429688,0.960938 1.429688,2.882813 v 2.789062 c -0.04687,1.148438 -0.140625,1.734375 -0.28125,1.734375 0,0.960938 -0.960938,1.429688 -2.882813,1.429688 H 42.34703 c -1.148437,-0.02344 -1.734375,-0.117188 -1.734375,-0.28125 -0.960937,0 -1.429687,-0.960938 -1.429687,-2.882813 z"
           style="font-family:'Digital tech';-inkscape-font-specification:'Digital tech';fill:url(#linearGradient1985);fill-opacity:1.0"
           id="path253" />
        <path
           d="m 65.831405,9.2923927 c -1.007812,0 -1.617187,0.6328125 -1.828125,1.9218753 -0.210937,0.773437 -0.5625,1.289062 -1.054687,1.523437 -1.710938,0.257813 -2.578125,0.9375 -2.578125,2.039063 v 8.4375 c 0,1.007812 0.632812,1.617187 1.921875,1.828125 0.773437,0.210937 1.289062,0.5625 1.523437,1.054687 0.234375,1.734375 0.914063,2.601563 2.015625,2.601563 h 10.21875 c 1.148438,0.02344 1.734375,0.117187 1.734375,0.28125 0.960938,0 1.429688,0.960937 1.429688,2.882812 v 2.789063 c -0.04687,1.148437 -0.140625,1.710937 -0.28125,1.710937 0,0.960938 -0.960938,1.453125 -2.882813,1.453125 h -13.96875 c -0.984375,0 -1.546875,0.585938 -1.710937,1.734375 v 1.617188 c 0,1.007812 0.5625,1.59375 1.710937,1.757812 H 78.81578 c 1.007813,0 1.617188,-0.632812 1.828125,-1.921875 0.210938,-0.773437 0.5625,-1.289062 1.054688,-1.523437 1.710937,-0.257813 2.578125,-0.9375 2.578125,-2.039063 v -8.34375 c 0,-1.007812 -0.632813,-1.617187 -1.921875,-1.828125 -0.773438,-0.210937 -1.289063,-0.5625 -1.523438,-1.054687 C 80.59703,24.479893 79.917343,23.612705 78.81578,23.612705 H 68.59703 c -1.148437,-0.02344 -1.734375,-0.117187 -1.734375,-0.28125 -0.960937,0 -1.429687,-0.960937 -1.429687,-2.882812 V 17.56583 c 0.04687,-1.148437 0.140625,-1.710937 0.28125,-1.710937 0,-0.960938 0.960937,-1.453125 2.882812,-1.453125 h 13.96875 c 0.984375,0 1.546875,-0.585938 1.710938,-1.734375 v -1.617188 c 0,-1.007812 -0.5625,-1.5937498 -1.710938,-1.7578123 z"
           style="font-family:'Digital tech';-inkscape-font-specification:'Digital tech';fill:url(#linearGradient1985);fill-opacity:1.0"
           id="path255" />
        <path
           d="m 92.081405,9.2923927 c -1.007812,0 -1.617187,0.6328125 -1.828125,1.9218753 -0.210937,0.773437 -0.5625,1.289062 -1.054687,1.523437 -1.710938,0.257813 -2.578125,0.9375 -2.578125,2.039063 v 22.640625 c 0,1.03125 0.632812,1.640625 1.921875,1.828125 0.773437,0.210937 1.289062,0.5625 1.523437,1.054687 0.234375,1.734375 0.914063,2.601563 2.015625,2.601563 h 16.710935 c 1.00782,0 1.59375,-0.585938 1.75782,-1.734375 v -1.617188 c 0,-1.007812 -0.58594,-1.59375 -1.73438,-1.757812 H 94.870468 c -1.148438,-0.04687 -1.734375,-0.140625 -1.734375,-0.28125 -0.960938,0 -1.429688,-0.960938 -1.429688,-2.882813 v -2.789062 c 0.04687,-1.148438 0.140625,-1.734375 0.28125,-1.734375 0,-0.960938 0.960938,-1.429688 2.882813,-1.429688 h 13.945312 c 1.00781,0 1.59375,-0.585937 1.75781,-1.734375 v -1.734375 c 0,-1.007812 -0.58593,-1.59375 -1.73437,-1.757812 H 94.893905 c -1.148437,-0.02344 -1.734375,-0.117188 -1.734375,-0.28125 -0.960937,0 -1.429687,-0.960938 -1.429687,-2.882813 v -2.789062 c 0.04687,-1.148438 0.140625,-1.710938 0.28125,-1.710938 0,-0.960937 0.960937,-1.453125 2.882812,-1.453125 h 13.945315 c 1.00781,0 1.59375,-0.585937 1.75781,-1.734375 v -1.617187 c 0,-1.0078128 -0.58594,-1.5937503 -1.73437,-1.7578128 z"
           style="font-family:'Digital tech';-inkscape-font-specification:'Digital tech';fill:url(#linearGradient1985);fill-opacity:1.0"
           id="path257" />
        <path
           d="m 118.33141,9.2923927 c -1.00782,0 -1.61719,0.6328125 -1.82813,1.9218753 -0.21094,0.773437 -0.5625,1.289062 -1.05469,1.523437 -1.71093,0.257813 -2.57812,0.9375 -2.57812,2.039063 v 26.390625 c 0,1.007812 0.5625,1.59375 1.71094,1.757812 h 1.64062 c 0.98438,0 1.54688,-0.585937 1.71094,-1.734375 v -23.625 c 0.0469,-1.148437 0.14062,-1.710937 0.28125,-1.710937 0,-0.960938 0.96094,-1.453125 2.88281,-1.453125 h 7.45313 c 1.14843,0.04687 1.73437,0.140625 1.73437,0.28125 0.96094,0 1.42969,0.960937 1.42969,2.882812 v 23.625 c 0,1.007813 0.5625,1.59375 1.71094,1.757813 h 1.64062 c 0.98438,0 1.54688,-0.585938 1.71094,-1.734375 V 14.823643 c 0,-1.03125 -0.63281,-1.640625 -1.92188,-1.828125 -0.77343,-0.210938 -1.28906,-0.5625 -1.52343,-1.054688 -0.23438,-1.734375 -0.91407,-2.6015623 -2.01563,-2.6015623 z"
           style="font-family:'Digital tech';-inkscape-font-specification:'Digital tech';fill:url(#linearGradient1985);fill-opacity:1.0"
           id="path259" />
        <path
           d="m 140.83141,9.2923927 c -0.98438,0 -1.54688,0.5859375 -1.71094,1.7343753 v 1.617187 c 0,1.007813 0.5625,1.59375 1.71094,1.757813 h 4.5 c 1.14843,0.04687 1.73437,0.140625 1.73437,0.28125 0.96094,0 1.42969,0.960937 1.42969,2.882812 v 23.625 c 0,1.007813 0.5625,1.59375 1.71094,1.757813 h 1.64062 c 0.98438,0 1.54688,-0.585938 1.71094,-1.734375 v -23.625 c 0.0469,-1.148438 0.14062,-1.710938 0.28125,-1.710938 0,-0.960937 0.96094,-1.453125 2.88281,-1.453125 h 4.59375 c 0.98438,0 1.54688,-0.585937 1.71094,-1.734375 v -1.617187 c 0,-1.007813 -0.5625,-1.5937503 -1.71094,-1.7578128 z"
           style="font-family:'Digital tech';-inkscape-font-specification:'Digital tech';fill:url(#linearGradient1985);fill-opacity:1.0"
           id="path261" />
        <path
           d="m 170.83141,9.2923927 c -1.00782,0 -1.61719,0.6328125 -1.82813,1.9218753 -0.21094,0.773437 -0.5625,1.289062 -1.05469,1.523437 -1.71093,0.257813 -2.57812,0.9375 -2.57812,2.039063 v 22.640625 c 0,1.03125 0.63281,1.640625 1.92187,1.828125 0.77344,0.210937 1.28907,0.5625 1.52344,1.054687 0.23438,1.734375 0.91406,2.601563 2.01563,2.601563 h 16.71093 c 1.00782,0 1.59375,-0.585938 1.75782,-1.734375 v -1.617188 c 0,-1.007812 -0.58594,-1.59375 -1.73438,-1.757812 h -13.94531 c -1.14844,-0.04687 -1.73438,-0.140625 -1.73438,-0.28125 -0.96093,0 -1.42968,-0.960938 -1.42968,-2.882813 v -2.789062 c 0.0469,-1.148438 0.14062,-1.734375 0.28125,-1.734375 0,-0.960938 0.96093,-1.429688 2.88281,-1.429688 h 13.94531 c 1.00781,0 1.59375,-0.585937 1.75781,-1.734375 v -1.734375 c 0,-1.007812 -0.58593,-1.59375 -1.73437,-1.757812 h -13.94531 c -1.14844,-0.02344 -1.73438,-0.117188 -1.73438,-0.28125 -0.96094,0 -1.42969,-0.960938 -1.42969,-2.882813 v -2.789062 c 0.0469,-1.148438 0.14063,-1.710938 0.28125,-1.710938 0,-0.960937 0.96094,-1.453125 2.88282,-1.453125 h 13.94531 c 1.00781,0 1.59375,-0.585937 1.75781,-1.734375 v -1.617187 c 0,-1.0078128 -0.58594,-1.5937503 -1.73437,-1.7578128 z"
           style="font-family:'Digital tech';-inkscape-font-specification:'Digital tech';fill:url(#linearGradient1985);fill-opacity:1.0"
           id="path263" />
        <path
           d="m 197.08141,9.2923927 c -1.00782,0 -1.61719,0.6328125 -1.82813,1.9218753 -0.21094,0.773437 -0.5625,1.289062 -1.05469,1.523437 -1.71093,0.257813 -2.57812,0.9375 -2.57812,2.039063 v 22.640625 c 0,1.03125 0.63281,1.640625 1.92187,1.828125 0.77344,0.210937 1.28907,0.5625 1.52344,1.054687 0.23438,1.734375 0.91406,2.601563 2.01563,2.601563 h 16.71093 c 1.00782,0 1.59375,-0.585938 1.75782,-1.734375 v -1.617188 c 0,-1.007812 -0.58594,-1.59375 -1.73438,-1.757812 h -13.94531 c -1.14844,-0.04687 -1.73438,-0.140625 -1.73438,-0.28125 -0.96093,0 -1.42968,-0.960938 -1.42968,-2.882813 V 17.518955 c 0.0469,-1.148437 0.14062,-1.710937 0.28125,-1.710937 0,-0.960938 0.96093,-1.453125 2.88281,-1.453125 h 13.94531 c 1.00781,0 1.59375,-0.585938 1.75781,-1.734375 V 11.00333 c 0,-1.0078123 -0.58593,-1.5937498 -1.73437,-1.7578123 z"
           style="font-family:'Digital tech';-inkscape-font-specification:'Digital tech';fill:url(#linearGradient1985);fill-opacity:1.0"
           id="path265" />
        <path
           d="m 219.58141,9.2923927 c -0.98438,0 -1.54688,0.5859375 -1.71094,1.7343753 v 30.140625 c 0,1.007812 0.5625,1.59375 1.71094,1.757812 h 1.64062 c 0.98438,0 1.54688,-0.585937 1.71094,-1.734375 v -9.304687 c 0.0469,-1.148438 0.14062,-1.734375 0.28125,-1.734375 0,-0.960938 0.96094,-1.429688 2.88281,-1.429688 h 7.45313 c 1.14843,0.02344 1.71093,0.117188 1.71093,0.28125 0.96094,0 1.45313,0.960938 1.45313,2.882813 v 9.304687 c 0,1.007813 0.5625,1.59375 1.71094,1.757813 h 1.61718 c 1.00782,0 1.59375,-0.585938 1.75782,-1.734375 V 11.073643 c 0,-1.007813 -0.58594,-1.5937503 -1.73438,-1.7578128 h -1.61719 c -0.98437,0 -1.54687,0.5859375 -1.71093,1.7343748 v 9.304688 c -0.0469,1.148437 -0.14063,1.734375 -0.30469,1.734375 0,0.960937 -0.96094,1.429687 -2.85938,1.429687 h -7.45312 c -1.14844,-0.02344 -1.73438,-0.117187 -1.73438,-0.28125 -0.96093,0 -1.42968,-0.960937 -1.42968,-2.882812 v -9.304688 c 0,-1.007812 -0.5625,-1.5937498 -1.71094,-1.7578123 z"
           style="font-family:'Digital tech';-inkscape-font-specification:'Digital tech';fill:url(#linearGradient1985);fill-opacity:1.0"
           id="path267" />
      </g>
    </g>
  </g>
</svg>
