<?xml version="1.0" encoding="UTF-8" standalone="no"?>
<!-- Created with Inkscape (http://www.inkscape.org/) -->

<svg
   version="1.1"
   id="svg30347"
   width="249"
   height="54"
   viewBox="0 0 249 54"
   sodipodi:docname="arsentech-dark.svg"
   inkscape:version="1.1.2 (b8e25be833, 2022-02-05)"
   xmlns:inkscape="http://www.inkscape.org/namespaces/inkscape"
   xmlns:sodipodi="http://sodipodi.sourceforge.net/DTD/sodipodi-0.dtd"
   xmlns="http://www.w3.org/2000/svg"
   xmlns:svg="http://www.w3.org/2000/svg">
  <defs
     id="defs30351" />
  <sodipodi:namedview
     id="namedview30349"
     pagecolor="#ffffff"
     bordercolor="#666666"
     borderopacity="1.0"
     inkscape:pageshadow="2"
     inkscape:pageopacity="0.0"
     inkscape:pagecheckerboard="0"
     showgrid="false"
     inkscape:zoom="4.3614458"
     inkscape:cx="89.763812"
     inkscape:cy="8.7127071"
     inkscape:window-width="3440"
     inkscape:window-height="1377"
     inkscape:window-x="-8"
     inkscape:window-y="-8"
     inkscape:window-maximized="1"
     inkscape:current-layer="layer3" />
  <g
     inkscape:groupmode="layer"
     id="layer3"
     inkscape:label="Image 1">
    <g
       aria-label="ArsenTech"
       id="text32494"
       style="font-size:48px;line-height:1.25;font-family:'Digital tech';-inkscape-font-specification:'Digital tech';fill:#ffffff">
      <path
         d="m 13.715081,9.2663155 c -1.007812,0 -1.617187,0.6328125 -1.828125,1.9218745 -0.210937,0.773438 -0.5625,1.289063 -1.054687,1.523438 -1.7109378,0.257812 -2.5781253,0.9375 -2.5781253,2.039062 v 26.390625 c 0,1.007813 0.5625,1.59375 1.7109375,1.757813 h 1.6406248 c 0.984375,0 1.546875,-0.585938 1.710938,-1.734375 v -9.304688 c 0.04687,-1.148437 0.140625,-1.734375 0.28125,-1.734375 0,-0.960937 0.960937,-1.429687 2.882812,-1.429687 h 7.453125 c 1.148438,0.02344 1.710938,0.117187 1.710938,0.28125 0.960937,0 1.453125,0.960937 1.453125,2.882812 v 9.304688 c 0,1.007812 0.5625,1.59375 1.710937,1.757812 h 1.617188 c 1.007812,0 1.59375,-0.585937 1.757812,-1.734375 V 14.797565 c 0,-1.03125 -0.632812,-1.640625 -1.921875,-1.828125 -0.773437,-0.210937 -1.289062,-0.5625 -1.523437,-1.054687 -0.234375,-1.734375 -0.914063,-2.6015625 -2.015625,-2.6015625 z m -0.375,8.2968745 c 0.04687,-1.148437 0.140625,-1.710937 0.28125,-1.710937 0,-0.960938 0.960938,-1.453125 2.882813,-1.453125 h 7.453125 c 1.148437,0.04687 1.710937,0.140625 1.710937,0.28125 0.960938,0 1.453125,0.960937 1.453125,2.882812 v 2.789063 c -0.04687,1.148437 -0.140625,1.734375 -0.304687,1.734375 0,0.960937 -0.960938,1.429687 -2.859375,1.429687 h -7.453125 c -1.148438,-0.02344 -1.734375,-0.117187 -1.734375,-0.28125 -0.960938,0 -1.429688,-0.960937 -1.429688,-2.882812 z"
         id="path169" />
      <path
         d="m 36.215081,9.2663155 c -0.984375,0 -1.546875,0.5859375 -1.710937,1.7343745 v 30.140625 c 0,1.007813 0.5625,1.59375 1.710937,1.757813 h 1.640625 c 0.984375,0 1.546875,-0.585938 1.710938,-1.734375 v -9.398438 c 0.04687,-1.148437 0.140625,-1.734375 0.28125,-1.734375 0,-0.960937 0.960937,-1.429687 2.882812,-1.429687 h 7.453125 c 1.148438,0.02344 1.734375,0.117187 1.734375,0.28125 0.960938,0 1.429688,0.960937 1.429688,2.882812 v 9.398438 c 0,1.007812 0.5625,1.59375 1.710937,1.757812 h 1.640625 c 0.984375,0 1.546875,-0.585937 1.710938,-1.734375 v -12.1875 c 0,-0.492187 -0.257813,-1.007812 -0.773438,-1.546875 -1.382812,-0.398437 -2.085937,-0.84375 -2.085937,-1.335937 v -0.09375 c 0,-0.28125 0.117187,-0.515625 0.375,-0.679688 1.664062,-0.445312 2.484375,-1.171875 2.484375,-2.203125 v -8.34375 c 0,-1.03125 -0.632813,-1.640625 -1.921875,-1.828125 -0.773438,-0.210937 -1.289063,-0.5625 -1.523438,-1.054687 -0.234375,-1.734375 -0.914062,-2.6015625 -2.015625,-2.6015625 z m 3.351563,8.2968745 c 0.04687,-1.148437 0.140625,-1.710937 0.28125,-1.710937 0,-0.960938 0.960937,-1.453125 2.882812,-1.453125 h 7.453125 c 1.148438,0.04687 1.734375,0.140625 1.734375,0.28125 0.960938,0 1.429688,0.960937 1.429688,2.882812 v 2.789063 c -0.04687,1.148437 -0.140625,1.734375 -0.28125,1.734375 0,0.960937 -0.960938,1.429687 -2.882813,1.429687 h -7.453125 c -1.148437,-0.02344 -1.734375,-0.117187 -1.734375,-0.28125 -0.960937,0 -1.429687,-0.960937 -1.429687,-2.882812 z"
         id="path171" />
      <path
         d="m 66.215081,9.2663155 c -1.007812,0 -1.617187,0.6328125 -1.828125,1.9218745 -0.210937,0.773438 -0.5625,1.289063 -1.054687,1.523438 -1.710938,0.257812 -2.578125,0.9375 -2.578125,2.039062 v 8.4375 c 0,1.007813 0.632812,1.617188 1.921875,1.828125 0.773437,0.210938 1.289062,0.5625 1.523437,1.054688 0.234375,1.734375 0.914063,2.601562 2.015625,2.601562 h 10.21875 c 1.148438,0.02344 1.734375,0.117188 1.734375,0.28125 0.960938,0 1.429688,0.960938 1.429688,2.882813 v 2.789062 c -0.04687,1.148438 -0.140625,1.710938 -0.28125,1.710938 0,0.960937 -0.960938,1.453125 -2.882813,1.453125 h -13.96875 c -0.984375,0 -1.546875,0.585937 -1.710937,1.734375 v 1.617187 c 0,1.007813 0.5625,1.59375 1.710937,1.757813 h 16.734375 c 1.007813,0 1.617188,-0.632813 1.828125,-1.921875 0.210938,-0.773438 0.5625,-1.289063 1.054688,-1.523438 1.710937,-0.257812 2.578125,-0.9375 2.578125,-2.039062 v -8.34375 c 0,-1.007813 -0.632813,-1.617188 -1.921875,-1.828125 -0.773438,-0.210938 -1.289063,-0.5625 -1.523438,-1.054688 -0.234375,-1.734375 -0.914062,-2.601562 -2.015625,-2.601562 h -10.21875 c -1.148437,-0.02344 -1.734375,-0.117188 -1.734375,-0.28125 -0.960937,0 -1.429687,-0.960938 -1.429687,-2.882813 v -2.882812 c 0.04687,-1.148438 0.140625,-1.710938 0.28125,-1.710938 0,-0.960937 0.960937,-1.453125 2.882812,-1.453125 h 13.96875 c 0.984375,0 1.546875,-0.585937 1.710938,-1.734375 v -1.617187 c 0,-1.007813 -0.5625,-1.59375 -1.710938,-1.7578125 z"
         id="path173" />
      <path
         d="m 92.465081,9.2663155 c -1.007812,0 -1.617187,0.6328125 -1.828125,1.9218745 -0.210937,0.773438 -0.5625,1.289063 -1.054687,1.523438 -1.710938,0.257812 -2.578125,0.9375 -2.578125,2.039062 v 22.640625 c 0,1.03125 0.632812,1.640625 1.921875,1.828125 0.773437,0.210938 1.289062,0.5625 1.523437,1.054688 0.234375,1.734375 0.914063,2.601562 2.015625,2.601562 h 16.710939 c 1.00781,0 1.59375,-0.585937 1.75781,-1.734375 v -1.617187 c 0,-1.007813 -0.58594,-1.59375 -1.73437,-1.757813 H 95.254144 c -1.148438,-0.04687 -1.734375,-0.140625 -1.734375,-0.28125 -0.960938,0 -1.429688,-0.960937 -1.429688,-2.882812 V 31.81319 c 0.04687,-1.148437 0.140625,-1.734375 0.28125,-1.734375 0,-0.960937 0.960938,-1.429687 2.882813,-1.429687 h 13.945316 c 1.00781,0 1.59375,-0.585938 1.75781,-1.734375 v -1.734375 c 0,-1.007813 -0.58594,-1.59375 -1.73438,-1.757813 H 95.277581 c -1.148437,-0.02344 -1.734375,-0.117187 -1.734375,-0.28125 -0.960937,0 -1.429687,-0.960937 -1.429687,-2.882812 V 17.46944 c 0.04687,-1.148437 0.140625,-1.710937 0.28125,-1.710937 0,-0.960938 0.960937,-1.453125 2.882812,-1.453125 h 13.945309 c 1.00782,0 1.59375,-0.585938 1.75782,-1.734375 v -1.617188 c 0,-1.007812 -0.58594,-1.5937495 -1.73438,-1.757812 z"
         id="path175" />
      <path
         d="m 118.71508,9.2663155 c -1.00781,0 -1.61719,0.6328125 -1.82812,1.9218745 -0.21094,0.773438 -0.5625,1.289063 -1.05469,1.523438 -1.71094,0.257812 -2.57813,0.9375 -2.57813,2.039062 v 26.390625 c 0,1.007813 0.5625,1.59375 1.71094,1.757813 h 1.64063 c 0.98437,0 1.54687,-0.585938 1.71093,-1.734375 v -23.625 c 0.0469,-1.148438 0.14063,-1.710938 0.28125,-1.710938 0,-0.960937 0.96094,-1.453125 2.88282,-1.453125 h 7.45312 c 1.14844,0.04687 1.73438,0.140625 1.73438,0.28125 0.96093,0 1.42968,0.960938 1.42968,2.882813 v 23.625 c 0,1.007812 0.5625,1.59375 1.71094,1.757812 h 1.64063 c 0.98437,0 1.54687,-0.585937 1.71093,-1.734375 V 14.797565 c 0,-1.03125 -0.63281,-1.640625 -1.92187,-1.828125 -0.77344,-0.210937 -1.28906,-0.5625 -1.52344,-1.054687 -0.23437,-1.734375 -0.91406,-2.6015625 -2.01562,-2.6015625 z"
         id="path177" />
      <path
         d="m 141.21508,9.2663155 c -0.98437,0 -1.54687,0.5859375 -1.71094,1.7343745 v 1.617188 c 0,1.007812 0.5625,1.59375 1.71094,1.757812 h 4.5 c 1.14844,0.04687 1.73438,0.140625 1.73438,0.28125 0.96093,0 1.42968,0.960938 1.42968,2.882813 v 23.625 c 0,1.007812 0.5625,1.59375 1.71094,1.757812 h 1.64063 c 0.98437,0 1.54687,-0.585937 1.71093,-1.734375 v -23.625 c 0.0469,-1.148437 0.14063,-1.710937 0.28125,-1.710937 0,-0.960938 0.96094,-1.453125 2.88282,-1.453125 h 4.59375 c 0.98437,0 1.54687,-0.585938 1.71093,-1.734375 v -1.617188 c 0,-1.007812 -0.5625,-1.5937495 -1.71093,-1.757812 z"
         id="path179" />
      <path
         d="m 171.21508,9.2663155 c -1.00781,0 -1.61719,0.6328125 -1.82812,1.9218745 -0.21094,0.773438 -0.5625,1.289063 -1.05469,1.523438 -1.71094,0.257812 -2.57813,0.9375 -2.57813,2.039062 v 22.640625 c 0,1.03125 0.63282,1.640625 1.92188,1.828125 0.77344,0.210938 1.28906,0.5625 1.52344,1.054688 0.23437,1.734375 0.91406,2.601562 2.01562,2.601562 h 16.71094 c 1.00781,0 1.59375,-0.585937 1.75781,-1.734375 v -1.617187 c 0,-1.007813 -0.58594,-1.59375 -1.73437,-1.757813 h -13.94532 c -1.14843,-0.04687 -1.73437,-0.140625 -1.73437,-0.28125 -0.96094,0 -1.42969,-0.960937 -1.42969,-2.882812 V 31.81319 c 0.0469,-1.148437 0.14063,-1.734375 0.28125,-1.734375 0,-0.960937 0.96094,-1.429687 2.88281,-1.429687 h 13.94532 c 1.00781,0 1.59375,-0.585938 1.75781,-1.734375 v -1.734375 c 0,-1.007813 -0.58594,-1.59375 -1.73438,-1.757813 h -13.94531 c -1.14844,-0.02344 -1.73437,-0.117187 -1.73437,-0.28125 -0.96094,0 -1.42969,-0.960937 -1.42969,-2.882812 V 17.46944 c 0.0469,-1.148437 0.14062,-1.710937 0.28125,-1.710937 0,-0.960938 0.96094,-1.453125 2.88281,-1.453125 h 13.94531 c 1.00782,0 1.59375,-0.585938 1.75782,-1.734375 v -1.617188 c 0,-1.007812 -0.58594,-1.5937495 -1.73438,-1.757812 z"
         id="path181" />
      <path
         d="m 197.46508,9.2663155 c -1.00781,0 -1.61719,0.6328125 -1.82812,1.9218745 -0.21094,0.773438 -0.5625,1.289063 -1.05469,1.523438 -1.71094,0.257812 -2.57813,0.9375 -2.57813,2.039062 v 22.640625 c 0,1.03125 0.63282,1.640625 1.92188,1.828125 0.77344,0.210938 1.28906,0.5625 1.52344,1.054688 0.23437,1.734375 0.91406,2.601562 2.01562,2.601562 h 16.71094 c 1.00781,0 1.59375,-0.585937 1.75781,-1.734375 v -1.617187 c 0,-1.007813 -0.58594,-1.59375 -1.73437,-1.757813 h -13.94532 c -1.14843,-0.04687 -1.73437,-0.140625 -1.73437,-0.28125 -0.96094,0 -1.42969,-0.960937 -1.42969,-2.882812 V 17.492878 c 0.0469,-1.148438 0.14063,-1.710938 0.28125,-1.710938 0,-0.960937 0.96094,-1.453125 2.88281,-1.453125 h 13.94532 c 1.00781,0 1.59375,-0.585937 1.75781,-1.734375 v -1.617187 c 0,-1.0078125 -0.58594,-1.59375 -1.73438,-1.7578125 z"
         id="path183" />
      <path
         d="m 219.96508,9.2663155 c -0.98437,0 -1.54687,0.5859375 -1.71094,1.7343745 v 30.140625 c 0,1.007813 0.5625,1.59375 1.71094,1.757813 h 1.64063 c 0.98437,0 1.54687,-0.585938 1.71093,-1.734375 v -9.304688 c 0.0469,-1.148437 0.14063,-1.734375 0.28125,-1.734375 0,-0.960937 0.96094,-1.429687 2.88282,-1.429687 h 7.45312 c 1.14844,0.02344 1.71094,0.117187 1.71094,0.28125 0.96094,0 1.45312,0.960937 1.45312,2.882812 v 9.304688 c 0,1.007812 0.5625,1.59375 1.71094,1.757812 h 1.61719 c 1.00781,0 1.59375,-0.585937 1.75781,-1.734375 V 11.047565 c 0,-1.007812 -0.58594,-1.5937495 -1.73437,-1.757812 h -1.61719 c -0.98438,0 -1.54688,0.5859375 -1.71094,1.734375 v 9.304687 c -0.0469,1.148438 -0.14062,1.734375 -0.30469,1.734375 0,0.960938 -0.96093,1.429688 -2.85937,1.429688 h -7.45313 c -1.14843,-0.02344 -1.73437,-0.117188 -1.73437,-0.28125 -0.96094,0 -1.42969,-0.960938 -1.42969,-2.882813 v -9.304687 c 0,-1.007813 -0.5625,-1.59375 -1.71094,-1.7578125 z"
         id="path185" />
    </g>
  </g>
</svg>
